<?xml version="1.0" standalone="no"?>
<!DOCTYPE svg PUBLIC "-//W3C//DTD SVG 20010904//EN"
 "http://www.w3.org/TR/2001/REC-SVG-20010904/DTD/svg10.dtd">
<svg version="1.0" xmlns="http://www.w3.org/2000/svg"
 width="2162.000000pt" height="521.000000pt" viewBox="0 0 2162.000000 521.000000"
 preserveAspectRatio="xMidYMid meet">
<metadata>
Created by potrace 1.13, written by Peter Selinger 2001-2015
</metadata>
<g transform="translate(0.000000,521.000000) scale(0.100000,-0.100000)"
fill="#F0F0F0" stroke="none">
<path d="M2380 4959 c-548 -52 -1067 -296 -1453 -683 -295 -294 -515 -683
-617 -1086 -57 -226 -65 -292 -65 -585 0 -235 3 -285 22 -390 91 -492 301
-906 637 -1253 199 -205 388 -342 651 -472 340 -168 665 -243 1050 -243 393 1
758 91 1095 270 672 357 1115 984 1237 1748 25 156 25 526 0 685 -134 853
-691 1549 -1488 1860 -330 129 -718 183 -1069 149z m376 -339 c692 -56 1304
-459 1629 -1072 362 -686 297 -1527 -167 -2148 -78 -105 -248 -282 -348 -363
-285 -230 -631 -379 -1001 -432 -121 -17 -388 -20 -509 -5 -688 86 -1273 503
-1575 1122 -150 307 -213 606 -202 953 8 251 54 470 143 690 308 752 1025
1244 1845 1264 31 0 114 -4 185 -9z"/>
<path d="M2600 4414 c-458 -54 -831 -233 -1131 -541 -323 -331 -495 -733 -522
-1223 l-2 -45 -164 -3 -164 -3 7 -77 c59 -643 636 -1088 1269 -977 387 67 710
352 836 735 24 73 51 224 51 288 l0 42 185 0 185 0 0 -57 c0 -153 -63 -387
-146 -543 -163 -306 -449 -542 -772 -636 -444 -129 -908 -19 -1244 294 -69 64
-77 70 -48 32 19 -25 68 -79 110 -120 381 -380 952 -516 1462 -349 223 72 406
185 573 353 255 256 400 571 423 919 l7 102 184 0 184 0 -2 -85 c-3 -123 -36
-297 -80 -430 -295 -882 -1239 -1347 -2115 -1043 -221 76 -433 209 -610 381
-104 102 -68 46 54 -82 420 -440 1062 -639 1668 -516 706 144 1271 709 1411
1412 18 91 41 283 41 346 0 22 1 22 165 22 91 0 165 3 165 8 0 4 -5 47 -10 97
-37 318 -202 599 -454 774 -486 336 -1136 230 -1488 -243 -116 -155 -191 -356
-206 -548 l-7 -93 -185 0 -185 0 3 75 c16 363 208 724 504 948 233 176 490
262 784 262 327 0 633 -121 876 -348 68 -64 77 -69 48 -32 -110 144 -339 324
-512 404 -94 44 -229 89 -328 111 -104 22 -354 31 -474 16 -484 -61 -899 -361
-1117 -806 -84 -173 -127 -337 -144 -552 l-7 -83 -179 0 c-156 0 -180 2 -186
16 -9 24 14 244 37 345 41 190 131 398 247 574 86 130 300 345 431 434 189
128 403 217 634 263 163 32 443 32 607 0 322 -65 600 -208 833 -430 l112 -107
-63 78 c-256 312 -651 541 -1062 617 -110 21 -399 35 -489 24z"/>
<path d="M19825 4089 c-303 -34 -588 -176 -745 -372 -59 -74 -132 -217 -157
-307 -24 -91 -24 -320 1 -410 84 -306 353 -489 911 -620 532 -124 635 -156
725 -221 49 -35 79 -96 80 -157 0 -104 -84 -172 -265 -213 -88 -20 -412 -17
-540 5 -197 33 -383 88 -628 184 -92 36 -169 63 -170 61 -8 -9 -208 -552 -205
-555 8 -7 265 -116 363 -153 397 -149 806 -212 1168 -182 235 20 392 59 553
138 223 109 375 288 436 512 28 102 31 325 5 421 -24 92 -88 215 -146 282
-178 206 -427 330 -861 428 -585 131 -712 188 -727 324 -16 139 109 226 367
257 272 31 637 -45 944 -197 61 -29 110 -53 111 -51 6 8 215 557 215 564 0 20
-353 142 -545 188 -307 74 -640 101 -890 74z"/>
<path d="M15960 3162 c0 -909 4 -1000 49 -1188 114 -468 430 -743 951 -826
131 -20 568 -17 690 5 288 54 478 144 640 307 163 162 251 347 307 644 13 68
17 226 20 999 l4 917 -350 0 -350 0 -3 -867 c-4 -858 -4 -869 -26 -946 -65
-234 -204 -376 -422 -434 -88 -23 -272 -23 -360 0 -219 58 -357 200 -422 432
-22 79 -23 85 -26 948 l-3 867 -349 0 -350 0 0 -858z"/>
<path d="M6480 2614 c-388 -768 -707 -1400 -708 -1405 -2 -6 166 -8 419 -7
l423 3 105 223 105 222 483 0 c266 0 483 3 483 6 0 3 -67 142 -149 310 l-149
304 -190 2 -189 3 178 379 178 380 366 -740 c202 -406 405 -819 452 -916 l86
-178 425 0 c335 0 423 3 419 13 -3 6 -333 637 -735 1402 l-730 1390 -283 2
-284 3 -705 -1396z"/>
<path d="M9370 2605 l0 -1405 350 0 350 0 0 1405 0 1405 -350 0 -350 0 0
-1405z"/>
<path d="M10360 2601 l0 -1411 340 0 340 0 0 1110 0 1110 449 0 c427 0 452 -1
516 -21 55 -17 78 -31 120 -73 66 -66 89 -129 89 -242 0 -72 -4 -90 -33 -148
-23 -46 -46 -77 -78 -101 -85 -65 -110 -68 -480 -73 -183 -2 -333 -5 -333 -7
0 -2 196 -353 436 -779 l436 -776 345 0 c321 0 345 1 339 17 -4 9 -136 237
-294 506 -158 269 -286 491 -285 494 1 3 38 20 81 37 281 113 464 327 528 619
20 89 23 317 5 402 -82 397 -352 642 -794 722 -80 14 -203 17 -909 20 l-818 4
0 -1410z"/>
<path d="M13160 2605 l0 -1405 903 0 c841 0 908 2 992 19 322 67 592 311 670
606 79 303 -44 631 -298 790 l-42 26 66 68 c75 76 127 173 155 286 25 98 25
326 1 415 -60 224 -219 414 -432 516 -174 84 -98 78 -1112 82 l-903 3 0 -1406z
m1759 780 c137 -76 169 -237 69 -350 -22 -25 -59 -56 -82 -68 -41 -22 -44 -22
-556 -22 l-515 0 -3 225 c-1 123 0 230 3 238 4 10 102 12 517 10 l513 -3 54
-30z m-19 -1051 c94 -28 168 -94 199 -177 19 -50 13 -137 -13 -192 -29 -63
-97 -126 -162 -151 -46 -18 -82 -19 -569 -19 l-520 0 -3 265 c-1 146 0 270 3
277 3 10 111 13 508 13 433 0 511 -2 557 -16z"/>
</g>
</svg>
